<svg width="82" height="72" viewBox="0 0 82 72" fill="none" xmlns="http://www.w3.org/2000/svg">
<g clip-path="url(#clip0_2_3)">
<path d="M55.4505 12.7253C58.0807 14.09 60.3401 16.0909 62.5024 18.091C62.7915 18.3568 63.0847 18.6166 63.3798 18.8756C64.6525 20.0183 65.8532 21.2239 66.9039 22.5736C67.0294 22.724 67.0294 22.724 67.1574 22.8774C68.3019 24.2532 68.3019 24.2532 68.3019 24.8984C67.9559 25.0519 67.6099 25.2053 67.2534 25.3634C67.5994 25.5168 67.9454 25.6703 68.3019 25.8284C67.8669 26.9264 67.4254 28.0216 66.9744 29.1132C65.8511 31.8325 64.7508 34.5603 63.6637 37.2943C63.4974 37.7122 63.3308 38.13 63.1642 38.5478C62.6954 39.7238 62.2285 40.9005 61.7631 42.0778C61.6658 42.3236 61.5682 42.5694 61.4705 42.815C61.3045 43.2325 61.1402 43.6506 60.9761 44.0688C60.9297 44.1851 60.8832 44.3014 60.8354 44.4212C60.4384 45.4413 60.2037 46.377 60.3039 47.4721C60.3173 47.6552 60.3302 47.8384 60.3427 48.0216C60.3492 48.1175 60.3558 48.2133 60.3626 48.3121C60.393 48.8376 60.4005 49.3633 60.4086 49.8896C60.4104 50.0004 60.4122 50.1112 60.4141 50.2253C60.4179 50.4553 60.4215 50.6853 60.4251 50.9152C60.4569 56.6395 60.4569 56.6395 61.3629 62.2702C61.3854 62.3586 61.4079 62.4469 61.4311 62.5379C61.5887 63.1073 61.8155 63.5698 62.1274 64.072C62.2693 64.0679 62.4112 64.0639 62.5575 64.0597C62.7466 64.0565 62.9358 64.0533 63.1249 64.0502C63.2647 64.0458 63.2647 64.0458 63.4073 64.0413C64.3701 64.0296 65.0327 64.3247 65.7471 64.9751C66.4852 65.8264 66.8305 66.859 66.812 67.9706C66.724 68.9955 66.3199 69.851 65.5355 70.5234C64.3825 71.327 62.9657 71.3383 61.614 71.3308C61.343 71.3299 61.0723 71.3332 60.8013 71.3369C58.4025 71.3483 56.2136 70.6505 54.4471 68.9737C52.7245 67.1666 52.354 63.9952 51.8827 61.6382C51.8333 61.3965 51.7837 61.1549 51.734 60.9133C51.5156 59.847 51.3027 58.7797 51.0949 57.7113C51.0328 57.3924 50.9704 57.0736 50.9079 56.7548C50.8317 56.3662 50.7574 55.9774 50.6843 55.5882C50.4327 54.2767 50.126 53.0226 49.4289 51.8666C49.4289 51.7899 49.4289 51.7131 49.4289 51.6341C47.7406 51.1776 45.9411 50.8204 44.1864 50.8204C44.2342 50.9566 44.2819 51.0928 44.3311 51.2331C44.3946 51.4176 44.458 51.6021 44.5214 51.7867C44.5527 51.8757 44.5841 51.9648 44.6165 52.0566C45.1084 53.4993 45.1505 54.8686 45.1412 56.376C45.1407 56.5852 45.1404 56.7945 45.1402 57.0038C45.1393 57.5505 45.137 58.0972 45.1344 58.6439C45.132 59.2035 45.131 59.763 45.1298 60.3225C45.1273 61.4174 45.1233 62.5122 45.1184 63.607C45.2182 63.6075 45.318 63.608 45.4208 63.6085C45.7965 63.6116 46.172 63.6174 46.5476 63.6248C46.7092 63.6274 46.8707 63.6291 47.0323 63.6298C48.1572 63.635 49.1401 63.7194 50.0031 64.5104C50.6654 65.211 50.814 66.0395 50.8269 66.978C50.7629 67.9524 50.5666 68.7282 50.0114 69.5354C49.9441 69.6385 49.8769 69.7416 49.8075 69.8478C49.1454 70.5268 48.3628 70.9313 47.4484 71.1628C47.3708 71.1829 47.2933 71.2031 47.2133 71.2238C46.7143 71.3031 46.2223 71.2954 45.7178 71.2945C45.6013 71.2948 45.4848 71.2951 45.3648 71.2953C44.9738 71.2961 44.5829 71.296 44.192 71.2959C43.9118 71.2962 43.6316 71.2966 43.3514 71.2971C42.6684 71.298 41.9855 71.2984 41.3026 71.2984C40.7462 71.2985 40.1898 71.2987 39.6335 71.2991C38.0523 71.3001 36.4711 71.3006 34.8899 71.3006C34.762 71.3005 34.762 71.3005 34.6316 71.3005C34.5462 71.3005 34.4609 71.3005 34.373 71.3005C32.9955 71.3005 31.618 71.3016 30.2406 71.3032C28.8225 71.3049 27.4043 71.3057 25.9862 71.3056C25.1916 71.3056 24.397 71.3059 23.6024 71.3071C22.8528 71.3083 22.1033 71.3083 21.3537 71.3074C21.0807 71.3073 20.8078 71.3076 20.5349 71.3083C14.7737 71.3223 9.02881 70.4904 4.69292 66.3968C4.59561 66.3072 4.49829 66.2176 4.39803 66.1253C1.57231 63.4364 0.115284 59.2348 0.0122997 55.39C0.00925318 55.1954 0.00690472 55.0008 0.00516063 54.8062C0.00343332 54.6471 0.00343509 54.6471 0.00167288 54.4848C-0.0419569 49.4001 0.773713 44.5954 1.75994 39.618C1.78815 39.4756 1.81635 39.3331 1.84541 39.1863C1.98316 38.4918 2.12204 37.7976 2.26306 37.1038C3.57618 31.8324 3.57618 31.8324 2.87261 26.6057C2.63614 26.3387 2.43828 26.1699 2.15176 25.9664C1.3067 25.3623 0.672719 24.5394 0.49892 23.5035C0.359256 22.1084 0.570522 20.9581 1.46005 19.8492C2.14264 19.1354 3.06953 18.6762 4.05399 18.5823C4.98164 18.5726 5.72963 18.6336 6.55692 19.0863C6.65679 19.1388 6.75665 19.1912 6.85955 19.2452C8.9804 20.4693 10.2902 22.4788 10.9839 24.7822C12.3747 30.1215 10.8668 35.8708 9.82927 41.1416C9.70152 41.791 9.57432 42.4406 9.44758 43.0903C9.42261 43.2183 9.39764 43.3462 9.37192 43.4781C9.05535 45.107 8.76149 46.736 8.53014 48.3793C8.51296 48.501 8.51296 48.501 8.49543 48.6251C7.98883 52.257 7.52368 56.7405 9.81892 59.8873C9.99757 60.077 10.1803 60.2629 10.3668 60.4449C10.4607 60.537 10.5546 60.6291 10.6514 60.724C10.7227 60.7931 10.794 60.8622 10.8674 60.9335C10.851 60.8236 10.8346 60.7137 10.8176 60.6006C10.3787 57.6533 10.0223 54.7321 9.93542 51.7503C9.93134 51.6174 9.93134 51.6174 9.92717 51.4818C9.69844 42.8206 12.1722 34.4857 18.1519 28.0987C18.5396 27.7027 18.9457 27.3445 19.3719 26.9908C19.4763 26.8983 19.5807 26.8059 19.6882 26.7106C23.5328 23.3246 28.2837 21.3595 33.1772 20.0235C38.1476 18.6516 42.9622 16.4308 47.7319 14.4952C47.8197 14.4597 47.9074 14.4242 47.9978 14.3877C48.3878 14.2294 48.7763 14.069 49.1618 13.9003C49.2874 13.8458 49.4129 13.7913 49.5422 13.7351C49.6484 13.6877 49.7546 13.6404 49.864 13.5916C50.1279 13.5067 50.1279 13.5067 50.4774 13.6229C50.5543 14.0065 50.6312 14.3901 50.7104 14.7854C51.6627 14.4853 52.5822 14.1146 53.5064 13.7392C53.5064 13.3556 53.5064 12.972 53.5064 12.5768C53.2582 12.6795 53.2582 12.6795 53.0049 12.7843C52.7886 12.8726 52.5723 12.9608 52.356 13.049C52.1922 13.117 52.1922 13.117 52.0251 13.1864C51.9208 13.2287 51.8164 13.271 51.7089 13.3146C51.6125 13.3542 51.5161 13.3938 51.4168 13.4345C51.1764 13.5067 51.1764 13.5067 50.9434 13.3905C51.2522 13.2305 51.562 13.0761 51.8754 12.9255C51.985 12.8726 52.0947 12.8197 52.2076 12.7652C53.4102 12.2211 54.2415 12.1729 55.4505 12.7253ZM25.7794 46.9844C25.5325 47.2858 25.2996 47.5924 25.0804 47.9143C25.1189 47.9911 25.1573 48.0678 25.1969 48.1468C25.33 47.9994 25.33 47.9994 25.4659 47.849C27.6606 45.4344 30.1517 43.705 33.5117 43.4785C34.9628 43.4291 36.3255 43.7749 37.6564 44.3232C37.8503 44.4023 38.0474 44.4735 38.2449 44.5433C38.3218 44.505 38.3987 44.4666 38.4779 44.4271C37.1138 43.6805 35.7386 43.1385 34.1674 43.0322C34.0853 43.0262 34.0031 43.0202 33.9185 43.014C30.6753 42.8856 27.901 44.6953 25.7794 46.9844ZM38.4779 44.5433C38.5164 44.62 38.5548 44.6968 38.5944 44.7758C38.6713 44.7375 38.7482 44.6991 38.8274 44.6596C38.7121 44.6212 38.5967 44.5829 38.4779 44.5433ZM39.0604 44.8921C39.0989 44.9688 39.1373 45.0455 39.1769 45.1245C39.2538 45.0862 39.3307 45.0478 39.4099 45.0083C39.2946 44.9699 39.1792 44.9316 39.0604 44.8921ZM24.9639 48.1468C24.9639 48.4956 24.9639 48.4956 24.9639 48.4956V48.1468ZM24.7309 48.4956C24.7309 48.8443 24.7309 48.8443 24.7309 48.8443V48.4956ZM24.4979 48.8443C24.6144 49.0768 24.6144 49.0768 24.6144 49.0768L24.4979 48.8443Z" fill="#111111"/>
<path d="M76.4851 0.00401861C77.6993 -0.0455618 78.7904 0.368969 79.8354 0.952572C79.61 1.67635 79.3399 2.36123 79.0126 3.04493C78.9678 3.13902 78.9231 3.23311 78.877 3.33006C78.3993 4.31563 77.8409 5.2482 77.2724 6.18346C77.2339 6.26018 77.1955 6.3369 77.1559 6.41595C77.2457 6.62185 77.2457 6.62185 77.3921 6.84323C77.4455 6.92913 77.4989 7.01504 77.554 7.10355C77.6124 7.19551 77.6709 7.28747 77.7311 7.38221C77.8193 7.52385 77.8193 7.52385 77.9093 7.66836C78.1724 8.09033 78.4386 8.51036 78.7059 8.92968C79.9625 10.9203 80.6026 12.66 80.1849 15.0179C80.0729 16.1573 80.3238 17.0483 80.9003 18.0352C81.1562 18.6424 81.086 19.4424 80.9285 20.0703C80.0219 22.2837 77.7966 23.8812 75.7024 24.8916C74.5169 25.3878 73.3156 25.192 72.1596 24.7327C71.8399 24.6018 71.5225 24.4662 71.2058 24.3282C70.1462 23.87 69.339 23.6066 68.1854 23.9685C68.0815 23.8166 68.0815 23.8166 67.9756 23.6615C67.3796 22.8024 66.7511 22.0133 66.031 21.255C65.7965 21.0071 65.573 20.7561 65.353 20.4958C64.5086 19.525 63.5728 18.6012 62.5893 17.7713C62.3068 17.5293 62.0361 17.2759 61.7633 17.023C61.0854 16.4065 60.3734 15.8416 59.6453 15.2853C59.4623 15.1452 59.2805 15.0035 59.0988 14.8617C57.4286 13.5773 55.6559 12.6305 53.7394 11.7631C53.7394 11.2058 53.8241 11.1549 54.1981 10.7678C54.5862 10.355 54.9566 9.93745 55.3121 9.49636C55.7329 8.97743 56.1727 8.48157 56.6232 7.98839C56.8921 7.68652 57.1477 7.3768 57.4018 7.06254C59.7075 4.24144 61.9941 3.09001 65.484 2.23123C65.765 2.16055 66.0459 2.08975 66.3267 2.01881C73.4976 0.216941 73.4976 0.216941 76.4851 0.00401861Z" fill="#111111"/>
</g>
<defs>
<clipPath id="clip0_2_3">
<rect width="82" height="72" fill="white"/>
</clipPath>
</defs>
</svg>
